# xmcd CD Database Entry
#
# Track frame offsets:
# 151
# 13093
# 25368
# 40418
# 56143
# 74053
# 90208
# 100641
# 117296
# 128211
# 153318
# 168231
# 187108
# 199636
# 216908
# 240328
# 255768
# 273076
# 292776
# 314183
#
# Disc length: 4416 seconds
#
# Revision: 2
# Processed by: cddbd v1.4PL0 Copyright (c) Steve Scherf et al.
# Submitted via: tcd 2.0b
#
DISCID=16113e14
DTITLE=Jimi Hendrix Experience - The Best Of Jimi Hendrix
DYEAR=1900
DGENRE=
TTITLE0=Purple Haze
TTITLE1=Fire
TTITLE2=The Wind Cries Mary
TTITLE3=Hey Joe
TTITLE4=All Along The Watchtower
TTITLE5=Stone Free
TTITLE6=Crosstown Traffic
TTITLE7=Manic Depression
TTITLE8=Little Wing
TTITLE9=If 6 Was 9
TTITLE10=Foxey Lady
TTITLE11=Bold As Love
TTITLE12=Castles Made Of Sand
TTITLE13=Red House
TTITLE14=Woodoo Child (Slight Return)
TTITLE15=Freedom
TTITLE16=Night Bird Flying
TTITLE17=Angel
TTITLE18=Dolly Dagger
TTITLE19=Star Sprangled Banner
EXTD=
EXTT0=
EXTT1=
EXTT2=
EXTT3=
EXTT4=
EXTT5=
EXTT6=
EXTT7=
EXTT8=
EXTT9=
EXTT10=
EXTT11=
EXTT12=
EXTT13=
EXTT14=
EXTT15=
EXTT16=
EXTT17=
EXTT18=
EXTT19=
PLAYORDER=
